<svg aria-hidden="true" style="position:absolute;width:0;height:0" xmlns="http://www.w3.org/2000/svg" overflow="hidden"><defs><symbol id="icon-button" viewBox="0 0 32 32"><path fill="#ff851c" style="fill: var(--color1, #ff851c)" d="M28.235 16c0 6.757-5.478 12.235-12.235 12.235s-12.235-5.478-12.235-12.235c0-6.757 5.478-12.235 12.235-12.235s12.235 5.478 12.235 12.235z"></path><path fill="#fff" style="fill: var(--color2, #fff)" d="M12.781 15.642h2.861v-2.861c0-0.197 0.16-0.358 0.358-0.358s0.358 0.16 0.358 0.358v2.861h2.861c0.197 0 0.358 0.16 0.358 0.358s-0.16 0.358-0.358 0.358h-2.861v2.861c0 0.197-0.16 0.358-0.358 0.358s-0.358-0.16-0.358-0.358v-2.861h-2.861c-0.197 0-0.358-0.16-0.358-0.358s0.16-0.358 0.358-0.358z"></path></symbol><symbol id="icon-ellipse" viewBox="0 0 32 32"><path fill="var(--color1, #00d7ff)" d="M32 16c0-8.837-7.163-16-16-16S0 7.163 0 16s7.163 16 16 16 16-7.163 16-16z"/></symbol><symbol id="icon-fire" viewBox="0 0 21 32"><path fill="var(--color2, #ff851c)" d="M5.547 32C2.002 20.279 9.494 16 9.494 16c-.523 6.254 3.019 11.125 3.019 11.125 1.303-.393 3.79-2.236 3.79-2.236 0 2.236-1.312 7.108-1.312 7.108s4.594-3.563 6.041-9.483c1.444-5.92-2.752-11.861-2.752-11.861a15.846 15.846 0 01-3.942 11.475l.015-.017a2.22 2.22 0 00.343-.532c.498-.996 1.298-3.591.828-9.595C14.866 3.554 7.254 0 7.254 0c.656 5.136-1.312 6.318-5.92 16.068C-3.276 25.814 5.547 32 5.547 32z"/></symbol><symbol id="icon-exit2" viewBox="0 0 28 32"><path fill="var(--color3, #3e4e6c)" d="M15.106 31.853h.009c5.203 0 9.791-2.632 12.505-6.637l.034-.053a1.848 1.848 0 00-3.064-2.068l-.004.006c-2.077 3.068-5.544 5.058-9.477 5.058h-.003C8.805 28.151 3.7 23.045 3.693 16.745v-.001-.013c0-6.302 5.109-11.411 11.411-11.411a11.4 11.4 0 019.443 5.002l.026.04a1.847 1.847 0 103.057-2.074l.004.006c-2.752-4.04-7.33-6.658-12.52-6.658h-.008C6.777 1.634 0 8.411 0 16.742 0 25.071 6.776 31.85 15.106 31.85z"/></symbol><symbol id="icon-exit1" viewBox="0 0 60 32"><path fill="var(--color3, #3e4e6c)" d="M47.058 13.92H6.638a3.488 3.488 0 000 6.976h40.416l-4.512 4.512a3.488 3.488 0 104.93 4.933l.001-.001 10.468-10.464a3.46 3.46 0 00.223-.246l.005-.006.05-.068a3.3 3.3 0 00.146-.195l.007-.011.039-.064c.05-.075.096-.153.139-.231l.021-.046c.036-.066.078-.152.116-.241l.009-.022.014-.036c.029-.069.063-.163.093-.259l.007-.025c.007-.011.007-.025.011-.036.023-.074.047-.173.068-.274l.004-.021c.011-.028.011-.057.018-.089a3.127 3.127 0 00.034-.961l.001.015a2.53 2.53 0 00-.036-.249l-.014-.089a3.267 3.267 0 00-.077-.319l.006.024-.014-.036a3.369 3.369 0 00-.112-.307l.008.022c0-.014-.007-.025-.011-.036a3.48 3.48 0 00-.133-.282l.009.018-.021-.046a3.265 3.265 0 00-.147-.244l.008.013-.036-.06a3.034 3.034 0 00-.162-.216l.005.007-.05-.064a3.887 3.887 0 00-.228-.257L47.478 4.479c-.63-.633-1.502-1.025-2.466-1.025s-1.836.392-2.466 1.025c-.632.631-1.023 1.504-1.023 2.468s.391 1.836 1.023 2.468l4.512 4.508z"/></symbol><symbol id="icon-arrow" viewBox="0 0 32 32"><path fill="var(--color1, #00d7ff)" d="M21.55 27.086a1.121 1.121 0 01-1.614 0 1.167 1.167 0 010-1.623l8.178-8.306H1.129A1.134 1.134 0 010 16.023v-.014.001c0-.64.503-1.166 1.129-1.166h26.985l-8.183-8.288a1.187 1.187 0 010-1.642 1.126 1.126 0 011.618 0l10.112 10.277a1.141 1.141 0 010 1.618L21.549 27.086z"/></symbol><symbol id="icon-calendar" viewBox="0 0 32 32"><path fill="var(--color1, #00d7ff)" d="M11.429 14.4H8.382v3.2h3.047v-3.2zm6.096 0h-3.049v3.2h3.049v-3.2zm6.093 0h-3.047v3.2h3.047v-3.2zm3.049-11.2h-1.525V0h-3.047v3.2H9.903V0H6.856v3.2H5.331C3.64 3.2 2.3 4.64 2.3 6.4l-.016 22.4c0 1.76 1.355 3.2 3.047 3.2h21.335c1.675 0 3.047-1.44 3.047-3.2V6.4c0-1.76-1.371-3.2-3.047-3.2zm0 25.6H5.332V11.2h21.335v17.6z"/></symbol><symbol id="icon-clear" viewBox="0 0 32 32"><path fill="var(--color4, #db0837)" d="M32 3.222L28.778 0 16 12.778 3.222 0 0 3.222 12.778 16 0 28.778 3.222 32 16 19.222 28.778 32 32 28.778 19.222 16 32 3.222z"/></symbol><symbol id="icon-done" viewBox="0 0 32 32"><path fill="var(--color5, #24d40c)" d="M10.183 22.651l-7.637-7.163L0 17.877l10.183 9.552L32 6.96l-2.546-2.389-19.271 18.08z"/></symbol><symbol id="icon-plus" viewBox="0 0 32 32"><path fill="var(--color6, #fff)" d="M2.32 14.48h12.16V2.32a1.52 1.52 0 013.04 0v12.16h12.16a1.52 1.52 0 010 3.04H17.52v12.16a1.52 1.52 0 01-3.04 0V17.52H2.32a1.52 1.52 0 010-3.04z"/></symbol><symbol id="icon-polygon" viewBox="0 0 32 32"><path fill="var(--color1, #00d7ff)" d="M16 22L2.144 10h27.712L16 22z"/></symbol><symbol id="icon-save" viewBox="0 0 32 32"><path fill="var(--color1, #00d7ff)" d="M24.89 0H3.552A3.553 3.553 0 000 3.555v24.893A3.552 3.552 0 003.552 32h24.896C30.4 32 32 30.4 32 28.445V7.111L24.89.001zm3.552 28.445H3.559V3.552h19.859l5.03 5.03v19.866zM16 16a5.327 5.327 0 00-5.334 5.334c0 2.95 2.384 5.331 5.334 5.331s5.334-2.381 5.334-5.331A5.326 5.326 0 0016 16zM5.334 5.334h16v7.11h-16v-7.11z"/></symbol><symbol id="icon-star" viewBox="0 0 32 32"><path fill="var(--color1, #00d7ff)" d="M30.607 11.164l-8.811-.832a1.528 1.528 0 01-1.259-.927l-.004-.01-3.157-7.65a1.51 1.51 0 00-2.8-.011l-.004.01-3.13 7.65a1.498 1.498 0 01-1.257.934h-.006l-8.813.832c-1.314.128-1.843 1.771-.86 2.654l6.641 5.833a1.506 1.506 0 01.478 1.499l.002-.01-1.995 8.181c-.303 1.289 1.088 2.347 2.249 1.666l7.347-4.318c.221-.131.486-.208.77-.208s.55.077.777.212l-.007-.004 7.349 4.318a1.519 1.519 0 002.244-1.676l.002.01-1.969-8.181a1.504 1.504 0 01.478-1.487l.002-.002 6.639-5.833c.96-.885.405-2.526-.909-2.652z"/></symbol><symbol id="icon-trophy" viewBox="0 0 32 32"><path fill="var(--color1, #00d7ff)" d="M25.585 1.469h-2.614c.01-.289.015-.58.015-.873A.596.596 0 0022.39 0H9.61a.596.596 0 00-.596.596c0 .292.004.583.015.873H6.415a.596.596 0 00-.596.596c0 2.673.698 5.196 1.967 7.103 1.255 1.885 2.924 2.966 4.729 3.071.409.445.842.809 1.293 1.085v2.652h-1.002a2.196 2.196 0 00-2.193 2.195v1.001h-.044a.596.596 0 000 1.192h10.865a.596.596 0 000-1.192h-.044v-1.001a2.197 2.197 0 00-2.193-2.195h-1.001v-2.652c.451-.276.881-.64 1.292-1.085 1.804-.105 3.473-1.185 4.727-3.071 1.27-1.905 1.968-4.429 1.968-7.101a.596.596 0 00-.596-.596zM8.778 8.509C7.732 6.934 7.117 4.878 7.025 2.662h2.071c.214 2.723.854 5.239 1.853 7.238.16.317.324.618.497.902-.992-.375-1.91-1.159-2.668-2.295zm14.444 0c-.756 1.136-1.676 1.92-2.668 2.295.173-.284.339-.585.497-.902.999-1.999 1.638-4.515 1.853-7.238h2.071c-.093 2.215-.708 4.271-1.754 5.844z"/></symbol><symbol id="icon-logout" viewBox="0 0 41 32"><path fill="#3e4e6c" style="fill: var(--color1, #3e4e6c)" d="M34.325 14.899h-21.399c-1.020 0-1.847 0.827-1.847 1.847s0.827 1.847 1.847 1.847h21.397l-2.389 2.387c-0.334 0.334-0.541 0.796-0.541 1.306 0 1.020 0.827 1.847 1.847 1.847 0.51 0 0.971-0.207 1.305-0.54l5.542-5.54c0.041-0.041 0.081-0.085 0.118-0.13l0.003-0.003 0.026-0.038c0.025-0.031 0.052-0.067 0.077-0.103l0.004-0.006 0.021-0.034c0.026-0.038 0.051-0.079 0.073-0.12l0.011-0.026c0.019-0.034 0.041-0.080 0.061-0.126l0.005-0.012 0.008-0.019c0.019-0.049 0.038-0.1 0.053-0.151l0.006-0.019c0.012-0.039 0.025-0.092 0.036-0.145l0.002-0.011c0.006-0.015 0.006-0.032 0.009-0.047 0.019-0.094 0.029-0.203 0.029-0.313 0-0.066-0.004-0.131-0.011-0.195l0.001 0.008c-0.004-0.045-0.011-0.088-0.019-0.132l-0.008-0.047c-0.013-0.065-0.026-0.117-0.041-0.169l0.003 0.013-0.008-0.019c-0.020-0.064-0.038-0.115-0.059-0.164l0.004 0.012-0.006-0.019c-0.025-0.058-0.047-0.103-0.071-0.147l0.005 0.010-0.011-0.024c-0.027-0.050-0.052-0.090-0.078-0.129l0.004 0.007-0.019-0.032c-0.030-0.043-0.057-0.079-0.086-0.115l0.003 0.004-0.026-0.036c-0.040-0.048-0.079-0.091-0.12-0.132l-5.542-5.542c-0.334-0.335-0.795-0.543-1.305-0.543s-0.972 0.208-1.305 0.543l-0 0c-0.334 0.334-0.541 0.796-0.541 1.305s0.207 0.971 0.541 1.305l2.387 2.389z"></path><path fill="#3e4e6c" style="fill: var(--color1, #3e4e6c)" d="M15.106 31.853c0.002 0 0.004 0 0.007 0 5.203 0 9.791-2.632 12.505-6.637l0.034-0.053c0.182-0.281 0.29-0.624 0.29-0.993 0-1.020-0.827-1.847-1.847-1.847-0.62 0-1.169 0.306-1.504 0.774l-0.004 0.006c-2.077 3.067-5.544 5.056-9.476 5.056-0.002 0-0.004 0-0.006 0h0c-6.301-0.008-11.406-5.114-11.413-11.414v-0.001c0.007-6.3 5.113-11.405 11.412-11.413h0.001c3.799 0 7.337 1.882 9.466 5.033 0.339 0.473 0.887 0.778 1.506 0.778 1.020 0 1.847-0.827 1.847-1.847 0-0.37-0.109-0.715-0.296-1.003l0.004 0.007c-2.751-4.043-7.331-6.664-12.524-6.664-0.001 0-0.002 0-0.004 0h0c-8.329 0.002-15.106 6.778-15.106 15.108 0 8.331 6.776 15.108 15.106 15.108z"></path></symbol></defs></svg>